<svg width="251" height="249" viewBox="0 0 251 249" fill="none" xmlns="http://www.w3.org/2000/svg">
<rect width="251" height="249" rx="20" fill="#003D99"/>
<path d="M90.0455 172V78.9091H128.5C135.47 78.9091 141.485 80.1667 146.545 82.6818C151.636 85.1667 155.561 88.7424 158.318 93.4091C161.076 98.0455 162.455 103.545 162.455 109.909C162.455 116.364 161.045 121.848 158.227 126.364C155.409 130.848 151.409 134.273 146.227 136.636C141.045 138.97 134.909 140.136 127.818 140.136H103.5V122.409H123.636C127.03 122.409 129.864 121.97 132.136 121.091C134.439 120.182 136.182 118.818 137.364 117C138.545 115.152 139.136 112.788 139.136 109.909C139.136 107.03 138.545 104.652 137.364 102.773C136.182 100.864 134.439 99.4394 132.136 98.5C129.833 97.5303 127 97.0455 123.636 97.0455H112.545V172H90.0455ZM142.455 129.455L165.636 172H141.091L118.364 129.455H142.455Z" fill="white"/>
<path d="M166.864 74.3182L180.636 53.8182H160.955L151.727 74.3182H166.864Z" fill="#AF0000"/>
</svg>
